<svg xmlns="http://www.w3.org/2000/svg" viewBox="0 0 24 24">
  <path d="M19.14 12.94c.04-.31.06-.63.06-.94s-.02-.63-.06-.94l2.03-1.58a.5.5 0 00.12-.64l-1.92-3.32a.5.5 0 00-.6-.22l-2.39.96a7.01 7.01 0 00-1.63-.94l-.36-2.54A.5.5 0 0015.16 3h-6.3a.5.5 0 00-.49.42l-.36 2.54c-.6.25-1.16.57-1.69.94l-2.39-.96a.5.5 0 00-.6.22L1.41 8.84a.5.5 0 00.12.64l2.03 1.58c-.04.31-.06.63-.06.94s.02.63.06.94l-2.03 1.58a.5.5 0 00-.12.64l1.92 3.32a.5.5 0 00.6.22l2.39-.96c.53.37 1.09.69 1.69.94l.36 2.54a.5.5 0 00.49.42h6.3a.5.5 0 00.49-.42l.36-2.54c.6-.25 1.16-.57 1.69-.94l2.39.96a.5.5 0 00.6-.22l1.92-3.32a.5.5 0 00-.12-.64l-2.03-1.58zM12 15.5a3.5 3.5 0 110-7 3.5 3.5 0 010 7z"/>
</svg>
